<?xml version="1.0" encoding="utf-8"?>
<svg version="1.1" id="Layer_1" xmlns="http://www.w3.org/2000/svg" xmlns:xlink="http://www.w3.org/1999/xlink" x="0px" y="0px" viewBox="0 0 78.37 122.88" style="enable-background:new 0 0 78.37 122.88" xml:space="preserve">
	<g>
		<path d="M24.14,0h31.48c1.75,0,3.34,0.72,4.5,1.87l0,0.01l0.01,0l0.01,0.01C61.29,3.05,62,4.64,62,6.38v9.65 c0,1.76-0.72,3.35-1.87,4.51c-0.06,0.06-0.12,0.11-0.18,0.16c-1.14,1.06-2.67,1.71-4.33,1.71h-0.73V47.8 c6.75,2.96,12.5,7.76,16.63,13.76c4.32,6.3,6.85,13.92,6.85,22.13c0,21.64-17.54,39.18-39.18,39.18C17.54,122.88,0,105.34,0,83.7 c0-8.34,2.62-16.08,7.08-22.45c4.24-6.06,10.16-10.86,17.07-13.74v-25.1h-0.01c-1.75,0-3.34-0.72-4.51-1.88l-0.01,0.01 c-1.16-1.16-1.87-2.75-1.87-4.51V6.38c0-1.75,0.72-3.34,1.87-4.5l0.01,0l0-0.01l0.01-0.01C20.8,0.71,22.4,0,24.14,0L24.14,0z M17.67,74.22c2.28,0,4.2,1.57,4.73,3.69c3.26,0.1,6.26,0.59,8.53,1.68c11.04,5.32,12.44,3.58,14.84,0.61 c2.03-2.52,4.56-5.66,10.32-7.97c2.87-1.15,5.8-1.85,8.77-2.27l0,0c1.8-0.25,3.59-0.39,5.39-0.46c-0.82-1.79-1.79-3.5-2.89-5.1 c-3.84-5.6-9.3-9.99-15.71-12.5c-1.04-0.31-1.8-1.28-1.8-2.42V19.89c0-1.39,1.13-2.52,2.52-2.52h3.26c0.33,0,0.63-0.12,0.86-0.31 c0.02-0.03,0.05-0.05,0.08-0.08c0.24-0.24,0.39-0.58,0.39-0.94V6.38c0-0.37-0.15-0.7-0.38-0.94v0l-0.01-0.01 c-0.24-0.24-0.57-0.38-0.94-0.38H24.14c-0.37,0-0.7,0.15-0.94,0.38l0,0l-0.01,0.01c-0.24,0.24-0.38,0.57-0.38,0.94v9.65 c0,0.36,0.15,0.7,0.39,0.94l0,0l0,0.01c0.24,0.24,0.57,0.38,0.94,0.38h2.53c1.39,0,2.52,1.13,2.52,2.52v29.34h-0.01 c0,1.03-0.64,2-1.66,2.37c-6.65,2.42-12.34,6.84-16.33,12.53c-3.19,4.55-5.29,9.92-5.94,15.74c2.22-0.5,4.84-0.99,7.57-1.36 C13.12,76.1,15.18,74.22,17.67,74.22L17.67,74.22z M20.67,82.93c-0.83,0.65-1.87,1.04-3,1.04c-0.9,0-1.75-0.25-2.48-0.68 c-3.73,0.41-7.37,1.12-10.11,1.79c0.73,18.21,15.72,32.75,34.1,32.75c18.85,0,34.13-15.28,34.13-34.13c0-3.19-0.44-6.27-1.25-9.2 c-1.37,0.02-2.72,0.08-4.05,0.19c1.07,1.16,1.72,2.71,1.72,4.41c0,1.79-0.73,3.42-1.9,4.59c-1.17,1.17-2.8,1.9-4.59,1.9 c-1.79,0-3.42-0.73-4.59-1.9s-1.9-2.8-1.9-4.59c0-0.62,0.09-1.21,0.25-1.78c-3.88,1.78-5.77,4.13-7.31,6.04 c-3.98,4.94-6.3,7.82-20.95,0.77C26.81,83.21,23.9,82.89,20.67,82.93L20.67,82.93z M21.37,91.38c2.69,0,4.87,2.18,4.87,4.87 c0,2.69-2.18,4.87-4.87,4.87c-2.69,0-4.87-2.18-4.87-4.87C16.5,93.56,18.68,91.38,21.37,91.38L21.37,91.38z M37.33,100.78 c1.79,0,3.42,0.73,4.59,1.9c1.17,1.18,1.9,2.8,1.9,4.59c0,1.79-0.73,3.42-1.9,4.59c-1.17,1.18-2.8,1.9-4.59,1.9 c-1.79,0-3.42-0.73-4.59-1.9c-1.17-1.17-1.9-2.8-1.9-4.59c0-1.79,0.73-3.42,1.9-4.59C33.91,101.51,35.53,100.78,37.33,100.78 L37.33,100.78z M39.62,104.98c-0.59-0.59-1.4-0.95-2.3-0.95c-0.9,0-1.71,0.36-2.3,0.95c-0.59,0.59-0.95,1.4-0.95,2.3 c0,0.9,0.36,1.71,0.95,2.3c0.59,0.59,1.4,0.95,2.3,0.95c0.9,0,1.71-0.36,2.3-0.95c0.59-0.59,0.95-1.4,0.95-2.3 C40.57,106.38,40.21,105.57,39.62,104.98L39.62,104.98z M55.59,95.91c1.79,0,3.42,0.73,4.59,1.9c1.17,1.18,1.9,2.8,1.9,4.59 s-0.73,3.42-1.9,4.59c-1.17,1.18-2.8,1.9-4.59,1.9s-3.42-0.73-4.59-1.9c-1.17-1.17-1.9-2.8-1.9-4.59s0.73-3.42,1.9-4.59 C52.18,96.64,53.8,95.91,55.59,95.91L55.59,95.91z M57.89,100.11c-0.59-0.59-1.4-0.95-2.3-0.95c-0.9,0-1.71,0.36-2.3,0.95 c-0.59,0.59-0.95,1.4-0.95,2.3s0.36,1.71,0.95,2.3c0.59,0.59,1.4,0.95,2.3,0.95c0.9,0,1.71-0.36,2.3-0.95 c0.59-0.59,0.95-1.4,0.95-2.3S58.48,100.7,57.89,100.11L57.89,100.11z M65.54,76.8c-0.59-0.59-1.4-0.95-2.3-0.95 s-1.71,0.36-2.3,0.95C60.36,77.39,60,78.2,60,79.1c0,0.9,0.36,1.71,0.95,2.3c0.59,0.59,1.4,0.95,2.3,0.95s1.71-0.36,2.3-0.95 c0.59-0.59,0.95-1.4,0.95-2.3C66.49,78.2,66.13,77.39,65.54,76.8L65.54,76.8z" />
	</g>
</svg>
